<svg xmlns="http://www.w3.org/2000/svg" xmlns:xlink="http://www.w3.org/1999/xlink" width="500" zoomAndPan="magnify" viewBox="0 0 375 374.999991" height="500" preserveAspectRatio="xMidYMid meet" version="1.0"><defs><clipPath id="f5a90f2146"><path d="M 306.230469 19.921875 L 371 19.921875 L 371 85 L 306.230469 85 Z M 306.230469 19.921875 " clip-rule="nonzero"/></clipPath><clipPath id="1cb533df0c"><path d="M 4.167969 19.921875 L 305.8125 19.921875 L 305.8125 355.078125 L 4.167969 355.078125 Z M 4.167969 19.921875 " clip-rule="nonzero"/></clipPath></defs><g clip-path="url(#f5a90f2146)"><path fill="#111827" d="M 370.824219 52.21875 C 370.824219 53.277344 370.773438 54.332031 370.671875 55.382812 C 370.566406 56.4375 370.410156 57.480469 370.207031 58.519531 C 370 59.554688 369.742188 60.582031 369.433594 61.59375 C 369.128906 62.605469 368.773438 63.601562 368.367188 64.578125 C 367.960938 65.554688 367.511719 66.511719 367.011719 67.441406 C 366.515625 68.375 365.96875 69.28125 365.382812 70.160156 C 364.796875 71.042969 364.164062 71.890625 363.496094 72.707031 C 362.824219 73.523438 362.113281 74.308594 361.367188 75.054688 C 360.617188 75.804688 359.835938 76.511719 359.019531 77.183594 C 358.199219 77.855469 357.351562 78.484375 356.472656 79.074219 C 355.59375 79.660156 354.6875 80.203125 353.753906 80.703125 C 352.820312 81.199219 351.867188 81.652344 350.886719 82.058594 C 349.910156 82.460938 348.914062 82.816406 347.902344 83.125 C 346.890625 83.433594 345.867188 83.6875 344.828125 83.894531 C 343.792969 84.101562 342.746094 84.257812 341.695312 84.359375 C 340.640625 84.464844 339.585938 84.515625 338.527344 84.515625 C 337.46875 84.515625 336.414062 84.464844 335.363281 84.359375 C 334.308594 84.257812 333.265625 84.101562 332.226562 83.894531 C 331.191406 83.6875 330.164062 83.433594 329.152344 83.125 C 328.140625 82.816406 327.144531 82.460938 326.167969 82.058594 C 325.191406 81.652344 324.234375 81.199219 323.304688 80.703125 C 322.371094 80.203125 321.464844 79.660156 320.585938 79.074219 C 319.703125 78.484375 318.855469 77.855469 318.039062 77.183594 C 317.222656 76.511719 316.4375 75.804688 315.691406 75.054688 C 314.941406 74.308594 314.234375 73.523438 313.5625 72.707031 C 312.890625 71.890625 312.261719 71.042969 311.671875 70.160156 C 311.085938 69.28125 310.542969 68.375 310.042969 67.441406 C 309.546875 66.511719 309.09375 65.554688 308.6875 64.578125 C 308.285156 63.601562 307.929688 62.605469 307.621094 61.59375 C 307.3125 60.582031 307.058594 59.554688 306.851562 58.519531 C 306.644531 57.480469 306.488281 56.4375 306.386719 55.382812 C 306.28125 54.332031 306.230469 53.277344 306.230469 52.21875 C 306.230469 51.160156 306.28125 50.105469 306.386719 49.050781 C 306.488281 48 306.644531 46.953125 306.851562 45.917969 C 307.058594 44.878906 307.3125 43.855469 307.621094 42.84375 C 307.929688 41.832031 308.285156 40.835938 308.6875 39.859375 C 309.09375 38.882812 309.546875 37.925781 310.042969 36.992188 C 310.542969 36.058594 311.085938 35.152344 311.671875 34.273438 C 312.261719 33.394531 312.890625 32.546875 313.5625 31.730469 C 314.234375 30.910156 314.941406 30.128906 315.691406 29.378906 C 316.4375 28.632812 317.222656 27.921875 318.039062 27.25 C 318.855469 26.582031 319.703125 25.949219 320.585938 25.363281 C 321.464844 24.777344 322.371094 24.234375 323.304688 23.734375 C 324.234375 23.234375 325.191406 22.785156 326.167969 22.378906 C 327.144531 21.972656 328.140625 21.617188 329.152344 21.3125 C 330.164062 21.003906 331.191406 20.746094 332.226562 20.539062 C 333.265625 20.335938 334.308594 20.179688 335.363281 20.074219 C 336.414062 19.972656 337.46875 19.921875 338.527344 19.921875 C 339.585938 19.921875 340.640625 19.972656 341.695312 20.074219 C 342.746094 20.179688 343.792969 20.335938 344.828125 20.539062 C 345.867188 20.746094 346.890625 21.003906 347.902344 21.3125 C 348.914062 21.617188 349.910156 21.972656 350.886719 22.378906 C 351.867188 22.785156 352.820312 23.234375 353.753906 23.734375 C 354.6875 24.234375 355.59375 24.777344 356.472656 25.363281 C 357.351562 25.949219 358.199219 26.582031 359.019531 27.25 C 359.835938 27.921875 360.617188 28.632812 361.367188 29.378906 C 362.113281 30.128906 362.824219 30.910156 363.496094 31.730469 C 364.164062 32.546875 364.796875 33.394531 365.382812 34.273438 C 365.96875 35.152344 366.515625 36.058594 367.011719 36.992188 C 367.511719 37.925781 367.960938 38.882812 368.367188 39.859375 C 368.773438 40.835938 369.128906 41.832031 369.433594 42.84375 C 369.742188 43.855469 370 44.878906 370.207031 45.917969 C 370.410156 46.953125 370.566406 48 370.671875 49.050781 C 370.773438 50.105469 370.824219 51.160156 370.824219 52.21875 Z M 370.824219 52.21875 " fill-opacity="1" fill-rule="nonzero"/></g><g clip-path="url(#1cb533df0c)"><path fill="#111827" d="M 177.453125 208.101562 L 296.324219 105.808594 L 296.324219 19.957031 L 4.167969 19.957031 L 4.167969 224.613281 L 76.8125 165.175781 L 76.8125 90.953125 L 210.265625 90.953125 L 4.167969 260.933594 L 4.167969 355.042969 L 121.386719 254.332031 L 213.773438 355.042969 L 306.230469 355.042969 Z M 177.453125 208.101562 " fill-opacity="1" fill-rule="nonzero"/></g></svg>